<?xml version="1.0" standalone="no"?>
<!DOCTYPE svg PUBLIC "-//W3C//DTD SVG 20010904//EN"
 "http://www.w3.org/TR/2001/REC-SVG-20010904/DTD/svg10.dtd">
<svg version="1.0" xmlns="http://www.w3.org/2000/svg"
 width="500.000000pt" height="500.000000pt" viewBox="0 0 500.000000 500.000000"
 preserveAspectRatio="xMidYMid meet">
<metadata>
Created by potrace 1.14, written by Peter Selinger 2001-2017
</metadata>
<g transform="translate(0.000000,500.000000) scale(0.100000,-0.100000)"
fill="#000000" stroke="none">
<path d="M2410 4860 c0 -5 -13 -10 -30 -10 -16 0 -30 -4 -30 -10 0 -5 -20 -10
-45 -10 -25 0 -45 -5 -45 -11 0 -29 -30 -39 -122 -39 -82 0 -95 -2 -108 -20
-11 -15 -26 -20 -57 -20 -24 0 -43 -4 -43 -10 0 -5 -13 -10 -30 -10 -16 0 -30
-4 -30 -10 0 -5 -16 -10 -35 -10 -24 0 -35 -5 -35 -15 0 -8 -9 -15 -20 -15
-11 0 -20 -4 -20 -10 0 -5 -8 -10 -18 -10 -10 0 -24 -9 -32 -20 -9 -12 -26
-20 -45 -20 -19 0 -36 -8 -45 -20 -8 -11 -22 -20 -32 -20 -13 0 -18 -8 -18
-25 0 -23 -4 -25 -43 -25 -31 0 -46 -5 -57 -20 -8 -11 -18 -20 -23 -20 -10 0
-37 -26 -37 -35 0 -7 -88 -95 -95 -95 -9 0 -35 -27 -35 -37 0 -5 -9 -15 -20
-23 -11 -8 -20 -22 -20 -32 0 -10 -4 -18 -10 -18 -5 0 -10 -16 -10 -35 0 -29
-4 -35 -20 -35 -29 0 -70 -44 -70 -75 0 -14 -4 -25 -10 -25 -5 0 -10 -6 -10
-13 0 -7 -9 -19 -20 -27 -12 -8 -20 -26 -20 -42 0 -18 -5 -28 -15 -28 -8 0
-15 -6 -15 -14 0 -8 -6 -17 -12 -19 -10 -4 -9 -8 2 -16 12 -8 11 -13 -8 -29
-14 -12 -22 -31 -22 -51 0 -17 -4 -31 -10 -31 -5 0 -10 -9 -10 -20 0 -11 -4
-20 -10 -20 -5 0 -10 -20 -10 -45 0 -25 -5 -45 -11 -45 -19 0 -39 -28 -39 -54
0 -14 -4 -26 -10 -26 -5 0 -10 -16 -10 -35 0 -19 -4 -35 -10 -35 -6 0 -10 -32
-10 -75 0 -43 -4 -75 -10 -75 -6 0 -10 -32 -10 -75 0 -43 -4 -75 -10 -75 -6 0
-10 -90 -10 -250 0 -160 4 -250 10 -250 6 0 10 -32 10 -75 0 -43 4 -75 10 -75
6 0 10 -25 10 -55 0 -30 5 -55 10 -55 6 0 10 -25 10 -55 0 -30 5 -55 10 -55 6
0 10 -16 10 -35 0 -19 5 -35 10 -35 6 0 10 -18 10 -40 0 -29 4 -40 15 -40 9 0
15 -9 15 -25 0 -14 5 -25 10 -25 6 0 10 -13 10 -30 0 -16 5 -30 10 -30 6 0 10
-62 10 -165 0 -91 4 -165 8 -165 4 0 14 9 22 20 8 11 20 20 27 20 7 0 13 7 13
15 0 8 9 15 20 15 15 0 20 -7 20 -25 0 -14 5 -25 10 -25 6 0 10 -13 10 -30 0
-16 5 -30 10 -30 6 0 10 -14 10 -31 0 -30 19 -59 39 -59 6 0 11 -13 11 -30 0
-16 5 -30 10 -30 6 0 10 -11 10 -25 0 -14 5 -25 10 -25 6 0 10 -9 10 -20 0
-11 5 -20 10 -20 6 0 10 -28 10 -65 0 -68 6 -78 30 -45 8 11 18 20 23 20 14 0
37 28 37 45 0 20 44 65 65 65 8 0 15 5 15 10 0 6 7 10 15 10 8 0 15 -9 15 -20
0 -11 5 -20 10 -20 6 0 10 -11 10 -25 0 -14 5 -25 10 -25 6 0 10 -13 10 -30 0
-27 3 -30 31 -30 33 0 59 19 59 44 0 9 5 16 10 16 6 0 10 7 10 15 0 12 14 15
65 15 51 0 65 -3 65 -15 0 -8 9 -15 20 -15 11 0 20 -4 20 -10 0 -5 10 -10 23
-10 12 0 29 -9 37 -20 8 -11 21 -20 30 -20 9 0 22 -9 30 -20 8 -11 25 -20 37
-20 13 0 23 -5 23 -10 0 -17 47 -60 65 -60 8 0 15 -4 15 -10 0 -5 11 -10 25
-10 18 0 25 -5 25 -20 0 -13 7 -20 20 -20 11 0 20 -7 20 -15 0 -8 9 -15 20
-15 11 0 20 -4 20 -10 0 -5 7 -10 15 -10 8 0 15 -4 15 -10 0 -5 9 -10 20 -10
11 0 20 -4 20 -10 0 -5 9 -10 20 -10 11 0 20 -4 20 -10 0 -5 16 -10 35 -10 19
0 35 -4 35 -10 0 -5 9 -10 20 -10 11 0 20 -7 20 -15 0 -8 9 -15 20 -15 11 0
20 -4 20 -10 0 -5 16 -10 35 -10 19 0 35 -4 35 -10 0 -6 35 -10 85 -10 50 0
85 4 85 10 0 6 11 10 25 10 14 0 25 5 25 10 0 6 9 10 20 10 11 0 20 7 20 15 0
10 10 15 33 15 21 0 38 7 47 20 8 11 22 20 32 20 10 0 18 5 18 10 0 6 9 10 20
10 11 0 20 5 20 10 0 6 7 10 15 10 8 0 15 5 15 10 0 6 9 10 20 10 11 0 20 5
20 10 0 17 47 60 65 60 15 0 85 62 85 75 0 13 29 35 45 35 9 0 34 18 55 40 21
22 48 40 59 40 12 0 21 5 21 10 0 6 16 26 35 45 30 31 41 35 85 35 l50 0 0
-260 c0 -167 4 -260 10 -260 6 0 10 -62 10 -165 0 -103 4 -165 10 -165 6 0 10
-38 10 -95 0 -78 3 -95 15 -95 12 0 15 -15 15 -75 0 -43 4 -75 10 -75 6 0 10
-50 10 -130 0 -80 4 -130 10 -130 6 0 10 9 10 20 0 11 5 20 10 20 6 0 10 20
10 45 0 25 5 45 10 45 6 0 10 14 10 30 0 17 5 30 10 30 6 0 10 28 10 65 0 51
3 65 15 65 11 0 15 12 15 45 0 25 5 45 10 45 6 0 10 28 10 65 0 37 4 65 10 65
6 0 10 28 10 65 0 37 4 65 10 65 6 0 10 25 10 55 0 30 5 55 10 55 6 0 10 43
10 110 0 67 4 110 10 110 6 0 10 28 10 65 0 51 3 65 15 65 13 0 15 21 15 130
0 80 4 130 10 130 6 0 10 42 10 105 0 63 4 105 10 105 6 0 10 47 10 120 0 73
4 120 10 120 6 0 10 37 10 90 0 53 4 90 10 90 6 0 10 42 10 105 0 63 4 105 10
105 6 0 10 33 10 80 0 64 3 80 15 80 8 0 15 5 15 10 0 6 7 10 16 10 18 0 44
-23 44 -39 0 -6 5 -11 10 -11 6 0 10 40 10 100 0 82 3 100 15 100 12 0 15 15
15 75 0 43 4 75 10 75 6 0 10 -4 10 -10 0 -5 9 -10 20 -10 13 0 20 -7 20 -18
0 -10 9 -24 20 -32 11 -8 20 -20 20 -27 0 -7 7 -13 15 -13 8 0 15 -7 15 -16 0
-15 23 -44 34 -44 3 0 6 20 6 45 0 25 -4 45 -10 45 -6 0 -10 32 -10 75 0 43
-4 75 -10 75 -5 0 -10 14 -10 30 0 20 -5 30 -15 30 -12 0 -15 16 -15 80 0 47
-4 80 -10 80 -6 0 -10 35 -10 85 0 50 -4 85 -10 85 -6 0 -10 35 -10 85 0 50
-4 85 -10 85 -6 0 -10 28 -10 65 0 37 -4 65 -10 65 -5 0 -10 25 -10 55 0 30
-4 55 -10 55 -6 0 -10 28 -10 65 0 51 -3 65 -15 65 -11 0 -15 12 -15 45 0 25
-4 45 -10 45 -5 0 -10 14 -10 30 0 17 -4 30 -10 30 -5 0 -10 11 -10 25 0 14
-4 25 -10 25 -5 0 -10 9 -10 20 0 11 -4 20 -10 20 -5 0 -10 16 -10 35 0 19 -5
35 -11 35 -15 0 -39 26 -39 42 0 8 -9 20 -20 28 -11 8 -20 24 -20 35 0 11 -9
27 -20 35 -11 8 -20 22 -20 32 0 10 -5 18 -11 18 -11 0 -39 25 -39 35 0 12
-50 55 -65 55 -8 0 -15 5 -15 10 0 6 -7 10 -15 10 -8 0 -15 9 -15 20 0 13 -7
20 -20 20 -13 0 -20 7 -20 20 0 21 -61 90 -80 90 -5 0 -10 7 -10 15 0 11 -11
15 -40 15 -33 0 -40 3 -40 20 0 11 -6 20 -13 20 -7 0 -19 9 -27 20 -8 11 -25
20 -38 20 -24 0 -52 21 -52 39 0 6 -16 11 -35 11 -19 0 -35 5 -35 10 0 6 -13
10 -30 10 -16 0 -30 5 -30 10 0 6 -19 10 -43 10 -31 0 -46 5 -57 20 -8 11 -25
20 -37 20 -13 0 -23 5 -23 10 0 6 -13 10 -30 10 -20 0 -30 5 -30 15 0 13 -24
15 -155 15 -97 0 -155 4 -155 10 0 6 -9 10 -20 10 -11 0 -20 5 -20 10 0 6 -43
10 -110 10 -67 0 -110 -4 -110 -10z"/>
</g>
</svg>
